<svg xmlns="http://www.w3.org/2000/svg" viewBox="0 0 942 528" width="942" height="528">
<title>Echo VR tablet MUSIC page - playing</title>
<rect width="100%" height="100%" fill="#000"/>
<rect x="0.0" y="0.0" width="942.0" height="528.0" fill="#04090f" fill-opacity="1.00"/>
<text x="107.0" y="42.0" fill="#66b8d9" fill-opacity="1.00" font-family="Segoe UI, DejaVu Sans, sans-serif" font-size="30" text-anchor="middle" dominant-baseline="central">MUSIC</text>
<rect x="618.0" y="10.0" width="300.0" height="64.0" fill="#173047" fill-opacity="1.00"/>
<text x="768.0" y="42.0" fill="#ffffff" fill-opacity="1.00" font-family="Segoe UI, DejaVu Sans, sans-serif" font-size="26" text-anchor="middle" dominant-baseline="central">SPOTIFY</text>
<text x="471.0" y="123.0" fill="#ffffff" fill-opacity="1.00" font-family="Segoe UI, DejaVu Sans, sans-serif" font-size="44" text-anchor="middle" dominant-baseline="central">Everything In Its Right Place</text>
<text x="471.0" y="178.0" fill="#94b2cc" fill-opacity="1.00" font-family="Segoe UI, DejaVu Sans, sans-serif" font-size="26" text-anchor="middle" dominant-baseline="central">Radiohead</text>
<rect x="24.0" y="214.0" width="894.0" height="14.0" fill="#0d1a26" fill-opacity="1.00"/>
<text x="24.0" y="254.0" fill="#94b2cc" fill-opacity="1.00" font-family="Segoe UI, DejaVu Sans, sans-serif" font-size="22" text-anchor="start" dominant-baseline="central">1:42</text>
<text x="918.0" y="254.0" fill="#94b2cc" fill-opacity="1.00" font-family="Segoe UI, DejaVu Sans, sans-serif" font-size="22" text-anchor="end" dominant-baseline="central">4:11</text>
<rect x="286.0" y="462.0" width="370.0" height="28.0" fill="#0d1a26" fill-opacity="1.00"/>
<rect x="24.0" y="288.0" width="262.0" height="136.0" fill="#17364f" fill-opacity="1.00"/>
<text x="155.0" y="356.0" fill="#ffffff" fill-opacity="1.00" font-family="Segoe UI, DejaVu Sans, sans-serif" font-size="30" text-anchor="middle" dominant-baseline="central">PREV</text>
<rect x="306.0" y="288.0" width="330.0" height="136.0" fill="#1c759e" fill-opacity="1.00"/>
<text x="471.0" y="356.0" fill="#ffffff" fill-opacity="1.00" font-family="Segoe UI, DejaVu Sans, sans-serif" font-size="40" text-anchor="middle" dominant-baseline="central">PAUSE</text>
<rect x="656.0" y="288.0" width="262.0" height="136.0" fill="#17364f" fill-opacity="1.00"/>
<text x="787.0" y="356.0" fill="#ffffff" fill-opacity="1.00" font-family="Segoe UI, DejaVu Sans, sans-serif" font-size="30" text-anchor="middle" dominant-baseline="central">NEXT</text>
<rect x="24.0" y="440.0" width="238.0" height="72.0" fill="#12293d" fill-opacity="1.00"/>
<text x="143.0" y="476.0" fill="#ffffff" fill-opacity="1.00" font-family="Segoe UI, DejaVu Sans, sans-serif" font-size="26" text-anchor="middle" dominant-baseline="central">VOL -</text>
<rect x="680.0" y="440.0" width="238.0" height="72.0" fill="#12293d" fill-opacity="1.00"/>
<text x="799.0" y="476.0" fill="#ffffff" fill-opacity="1.00" font-family="Segoe UI, DejaVu Sans, sans-serif" font-size="26" text-anchor="middle" dominant-baseline="central">VOL +</text>
<rect x="24.0" y="214.0" width="13.9" height="14.0" fill="#42c7eb" fill-opacity="1.00"/>
<rect x="38.9" y="214.0" width="13.9" height="14.0" fill="#42c7eb" fill-opacity="1.00"/>
<rect x="53.8" y="214.0" width="13.9" height="14.0" fill="#42c7eb" fill-opacity="1.00"/>
<rect x="68.7" y="214.0" width="13.9" height="14.0" fill="#42c7eb" fill-opacity="1.00"/>
<rect x="83.6" y="214.0" width="13.9" height="14.0" fill="#42c7eb" fill-opacity="1.00"/>
<rect x="98.5" y="214.0" width="13.9" height="14.0" fill="#42c7eb" fill-opacity="1.00"/>
<rect x="113.4" y="214.0" width="13.9" height="14.0" fill="#42c7eb" fill-opacity="1.00"/>
<rect x="128.3" y="214.0" width="13.9" height="14.0" fill="#42c7eb" fill-opacity="1.00"/>
<rect x="143.2" y="214.0" width="13.9" height="14.0" fill="#42c7eb" fill-opacity="1.00"/>
<rect x="158.1" y="214.0" width="13.9" height="14.0" fill="#42c7eb" fill-opacity="1.00"/>
<rect x="173.0" y="214.0" width="13.9" height="14.0" fill="#42c7eb" fill-opacity="1.00"/>
<rect x="187.9" y="214.0" width="13.9" height="14.0" fill="#42c7eb" fill-opacity="1.00"/>
<rect x="202.8" y="214.0" width="13.9" height="14.0" fill="#42c7eb" fill-opacity="1.00"/>
<rect x="217.7" y="214.0" width="13.9" height="14.0" fill="#42c7eb" fill-opacity="1.00"/>
<rect x="232.6" y="214.0" width="13.9" height="14.0" fill="#42c7eb" fill-opacity="1.00"/>
<rect x="247.5" y="214.0" width="13.9" height="14.0" fill="#42c7eb" fill-opacity="1.00"/>
<rect x="262.4" y="214.0" width="13.9" height="14.0" fill="#42c7eb" fill-opacity="1.00"/>
<rect x="277.3" y="214.0" width="13.9" height="14.0" fill="#42c7eb" fill-opacity="1.00"/>
<rect x="292.2" y="214.0" width="13.9" height="14.0" fill="#42c7eb" fill-opacity="1.00"/>
<rect x="307.1" y="214.0" width="13.9" height="14.0" fill="#42c7eb" fill-opacity="1.00"/>
<rect x="322.0" y="214.0" width="13.9" height="14.0" fill="#42c7eb" fill-opacity="1.00"/>
<rect x="336.9" y="214.0" width="13.9" height="14.0" fill="#42c7eb" fill-opacity="1.00"/>
<rect x="351.8" y="214.0" width="13.9" height="14.0" fill="#42c7eb" fill-opacity="1.00"/>
<rect x="366.7" y="214.0" width="13.9" height="14.0" fill="#42c7eb" fill-opacity="1.00"/>
<rect x="286.0" y="462.0" width="28.8" height="28.0" fill="#42c7eb" fill-opacity="1.00"/>
<rect x="316.8" y="462.0" width="28.8" height="28.0" fill="#42c7eb" fill-opacity="1.00"/>
<rect x="347.7" y="462.0" width="28.8" height="28.0" fill="#42c7eb" fill-opacity="1.00"/>
<rect x="378.5" y="462.0" width="28.8" height="28.0" fill="#42c7eb" fill-opacity="1.00"/>
<rect x="409.3" y="462.0" width="28.8" height="28.0" fill="#42c7eb" fill-opacity="1.00"/>
</svg>